<svg id="search" xmlns="http://www.w3.org/2000/svg" width="27.785" height="27.785" viewBox="0 0 27.785 27.785">
  <path id="Path_209" data-name="Path 209" d="M6.158,147.555l-.967,3.611-3.535.075a13.917,13.917,0,0,1-.1-12.973h0l3.147.577,1.379,3.128a8.291,8.291,0,0,0,.078,5.582Z" transform="translate(0 -130.764)" fill="#fbbb00"/>
  <path id="Path_210" data-name="Path 210" d="M274.972,208.176a13.887,13.887,0,0,1-4.952,13.429h0l-3.964-.2-.561-3.5a8.28,8.28,0,0,0,3.562-4.228h-7.429v-5.5h13.344Z" transform="translate(-247.43 -196.879)" fill="#518ef8"/>
  <path id="Path_211" data-name="Path 211" d="M51.443,317.344h0a13.9,13.9,0,0,1-20.934-4.25l4.5-3.685a8.263,8.263,0,0,0,11.906,4.23Z" transform="translate(-28.853 -292.618)" fill="#28b446"/>
  <path id="Path_212" data-name="Path 212" d="M49.831,3.2l-4.5,3.685a8.261,8.261,0,0,0-12.18,4.326L28.625,7.5h0A13.9,13.9,0,0,1,49.831,3.2Z" transform="translate(-27.071)" fill="#f14336"/>
</svg>
