<svg xmlns="http://www.w3.org/2000/svg" xmlns:xlink="http://www.w3.org/1999/xlink" width="176.752" height="158.991" viewBox="0 0 176.752 158.991">
  <defs>
    <linearGradient id="linear-gradient" x1="0.5" x2="0.5" y2="1" gradientUnits="objectBoundingBox">
      <stop offset="0" stop-color="#fff"/>
      <stop offset="1" stop-color="#c6c6c6"/>
    </linearGradient>
    <filter id="Path_1" x="63.193" y="13.711" width="108.005" height="136.898" filterUnits="userSpaceOnUse">
      <feOffset dy="3" input="SourceAlpha"/>
      <feGaussianBlur stdDeviation="3" result="blur"/>
      <feFlood flood-opacity="0.639"/>
      <feComposite operator="in" in2="blur"/>
      <feComposite in="SourceGraphic"/>
    </filter>
    <filter id="Path_2" x="63.5" y="0" width="113.252" height="158.991" filterUnits="userSpaceOnUse">
      <feOffset dy="3" input="SourceAlpha"/>
      <feGaussianBlur stdDeviation="3" result="blur-2"/>
      <feFlood flood-opacity="0.42"/>
      <feComposite operator="in" in2="blur-2"/>
      <feComposite in="SourceGraphic"/>
    </filter>
    <linearGradient id="linear-gradient-2" x1="0.5" x2="0.5" y2="1" gradientUnits="objectBoundingBox">
      <stop offset="0" stop-color="#f8f8f8"/>
      <stop offset="1" stop-color="#b5b5b5"/>
    </linearGradient>
    <filter id="Path_4" x="0" y="0" width="81.807" height="158.991" filterUnits="userSpaceOnUse">
      <feOffset dy="3" input="SourceAlpha"/>
      <feGaussianBlur stdDeviation="3" result="blur-3"/>
      <feFlood flood-opacity="0.788"/>
      <feComposite operator="in" in2="blur-3"/>
      <feComposite in="SourceGraphic"/>
    </filter>
  </defs>
  <g id="LOGO" transform="translate(9 6)">
    <g transform="matrix(1, 0, 0, 1, -9, -6)" filter="url(#Path_1)">
      <path id="Path_1-2" data-name="Path 1" d="M61.294,79a99.221,99.221,0,0,1-17.4,32.743h0l1.079-.446,1.071-.462,1.063-.478,1.054-.493,1.045-.509,1.036-.524,1.027-.539,1.018-.554,1.008-.569,1-.584.987-.6.977-.613.966-.628.955-.642.944-.656.932-.669.92-.683.908-.7.9-.71.884-.723.871-.736.858-.749.845-.761.831-.774.818-.786.8-.8.79-.809.776-.821.761-.832.747-.843L72.5,91.2l.717-.865.7-.875.687-.886.671-.9.655-.905.639-.915.623-.924L77.8,84l.591-.942.574-.951.558-.959.541-.967.524-.975.507-.983.49-.99.473-1,.455-1,.437-1.01.42-1.017.4-1.023.384-1.029.366-1.034.348-1.039.33-1.044.312-1.049.293-1.054.275-1.058.257-1.062.238-1.065.219-1.069.2-1.072.182-1.075.163-1.077.145-1.079.126-1.081.107-1.083.088-1.084.069-1.086.05-1.087.031-1.087.012-1.087L87.959,48.7l-.026-1.087-.045-1.087-.064-1.086-.082-1.085-.1-1.084-.12-1.082-.139-1.08-.158-1.078-.177-1.075-.2-1.073-.214-1.07L86.4,35.747l-.251-1.063-.27-1.059L85.6,32.571l-.307-1.05-.325-1.046-.343-1.041L84.26,28.4l-.379-1.03-.4-1.024-.415-1.019-.432-1.012-.45-1.006-.468-1-.485-.992-.5-.985-.519-.977-.536-.969-.553-.961-.57-.953-.586-.945-.6-.936-.619-.927-.635-.918-.651-.908-.667-.9-.682-.888-.7-.878L72.7,8.3l-.728-.857L71.232,6.6l-.757-.835L69.7,4.941l-.786-.813-.8-.8L67.3,2.538l-.828-.777L65.634,1,64.78.244,63.912-.5l-.88-.727-.893-.714-.9-.7-.917-.687L59.389-4l-.94-.66L57.5-5.3l-.963-.632-.974-.617-.985-.6a104.779,104.779,0,0,1,13.979,80.6H27.12l-28.851-51.6-.307,10.836L23.861,79Z" transform="translate(74.23 26.86)" fill="url(#linear-gradient)"/>
    </g>
    <g transform="matrix(1, 0, 0, 1, -9, -6)" filter="url(#Path_2)">
      <path id="Path_2-2" data-name="Path 2" d="M30.11,79.871-1.693,23-2,33.832l28.851,51.6H68.286a104.779,104.779,0,0,0-13.979-80.6h0l.985.6.974.617.963.632.952.646.94.66.929.673.917.687.9.7.893.714.88.727.867.74.854.752.841.765.828.777.814.789.8.8.786.813.772.824.757.835.743.846.728.857.713.868.7.878.682.888.667.9.651.908.635.918.619.927.6.936.586.945.57.953.553.961.536.969.519.977.5.985.485.992.468,1,.45,1.006.432,1.012.415,1.019.4,1.024.379,1.03.361,1.036.343,1.041.325,1.046.307,1.05.288,1.055.27,1.059.251,1.063.233,1.066.214,1.07.2,1.073.177,1.075.158,1.078.139,1.08.12,1.082.1,1.084.082,1.085.064,1.086.045,1.087.026,1.087L87.7,61.77l-.012,1.087-.031,1.087-.05,1.087-.069,1.086L87.447,67.2l-.107,1.083-.126,1.081-.145,1.079-.163,1.077L86.725,72.6l-.2,1.072L86.3,74.737,86.066,75.8l-.257,1.062-.275,1.058-.293,1.054-.312,1.049-.33,1.044-.348,1.039-.366,1.034L83.5,84.17l-.4,1.023-.42,1.017-.437,1.01-.455,1-.473,1-.49.99-.507.983-.524.975-.541.967-.558.959-.574.951-.591.942-.607.933-.623.924-.639.915L75,99.665l-.671.9-.687.886-.7.875-.717.865-.732.854-.747.843-.761.832-.776.821-.79.809-.8.8-.818.786-.831.774-.845.761-.858.749-.871.736-.884.723-.9.71-.908.7-.92.683-.932.669-.944.656-.955.642-.966.628-.977.613-.987.6-1,.584-1.008.569L51,120.276l-1.027.539-1.036.524-1.045.509-1.054.493-1.063.478-1.071.462-1.079.446a99.227,99.227,0,0,1-7.551,8.382h0l1.172-.325,1.167-.342,1.161-.358,1.155-.375,1.148-.391,1.142-.408,1.135-.424,1.128-.44,1.12-.456,1.112-.472,1.1-.488,1.1-.5,1.088-.519,1.079-.534,1.07-.55,1.061-.565,1.051-.58,1.041-.595,1.031-.61,1.021-.624,1.01-.639,1-.653.989-.667.977-.681.966-.7.954-.709.942-.722.93-.736.918-.749.905-.762.892-.775.879-.787.866-.8.853-.812.839-.824.825-.836.811-.848.8-.859.783-.87.768-.881.753-.892.738-.9.723-.913.708-.924.692-.933.677-.943.661-.953.645-.962.629-.971.612-.98.6-.989.58-1,.563-1.005.546-1.013.529-1.021.512-1.028.495-1.035.478-1.042.46-1.049.443-1.055.425-1.062.407-1.067.389-1.073.371-1.079.353-1.084.335-1.089.317-1.093.3-1.1.281-1.1.262-1.106.244-1.109.225-1.113.207-1.116L92.4,72.33l.169-1.121.151-1.123.132-1.125.113-1.127.094-1.129.075-1.13.057-1.131.038-1.131.019-1.132V61.048l-.019-1.132-.038-1.131-.057-1.131-.075-1.13L92.969,55.4l-.113-1.127-.132-1.125-.151-1.123L92.4,50.9l-.188-1.119-.207-1.116-.225-1.113-.244-1.109-.262-1.106L91,44.234l-.3-1.1-.317-1.093-.335-1.089-.353-1.084-.371-1.079-.389-1.073-.407-1.067L88.1,35.59l-.443-1.055-.46-1.049-.478-1.042-.495-1.035-.512-1.028-.529-1.021-.546-1.013-.563-1.005-.58-1-.6-.989-.612-.98-.629-.971-.645-.962-.661-.953-.677-.943-.692-.933-.708-.923-.723-.913-.738-.9-.753-.892-.768-.881-.783-.87-.8-.859-.811-.848-.825-.836-.839-.824-.853-.812-.866-.8-.879-.787-.892-.775-.905-.762-.918-.749-.93-.736-.942-.722L63.1,4.011l-.966-.7-.977-.681-.989-.667-1-.653L58.156.676,57.135.051,56.1-.558l-1.041-.595-1.051-.58L52.951-2.3l-1.07-.55L50.8-3.382,49.715-3.9l-1.1-.5-1.1-.488L46.4-5.363l-1.12-.456-1.128-.44-1.135-.424L41.877-7.09l-1.148-.391-1.155-.375-1.161-.358-1.167-.342-1.172-.325a99.223,99.223,0,0,1,27.7,88.752H30.11Z" transform="translate(74.5 14.88)"/>
    </g>
    <path id="Path_3" data-name="Path 3" d="M48.339,32.684,20.514,76.427l-2.639,4.149a99.222,99.222,0,0,0,16.9,31.168h0l-1.079-.446-1.071-.462-1.063-.478-1.054-.493-1.045-.509-1.036-.524-1.027-.539-1.018-.554-1.008-.569-1-.584-.987-.6-.977-.613-.966-.628-.955-.642-.944-.656-.932-.669-.92-.683-.908-.7-.9-.71L15,99.966l-.871-.736-.858-.749-.845-.761-.831-.774-.818-.786-.8-.8-.79-.809-.776-.821L7.649,92.9,6.9,92.057,6.17,91.2l-.717-.865-.7-.875-.687-.886-.671-.9-.655-.905L2.1,85.861l-.623-.924L.868,84l-.591-.942L-.3,82.111l-.558-.959-.541-.967-.524-.975-.507-.983-.49-.99-.473-1-.455-1-.437-1.01L-4.7,73.21l-.4-1.023-.384-1.029-.366-1.034L-6.2,69.085l-.33-1.044-.312-1.049-.293-1.054-.275-1.058-.257-1.062-.238-1.065-.219-1.069-.2-1.072-.182-1.075-.163-1.077-.145-1.079L-8.943,56.3l-.107-1.083-.088-1.084-.069-1.086-.05-1.087-.031-1.087L-9.3,49.786l.007-1.087.026-1.087.045-1.087.064-1.086.082-1.085.1-1.084.12-1.082.139-1.08.158-1.078.177-1.075.2-1.073.214-1.07.233-1.066.251-1.063.27-1.059.288-1.055.307-1.05.325-1.046.343-1.041.361-1.036.379-1.03.4-1.024.415-1.019.432-1.012.45-1.006.468-1,.485-.992.5-.985.519-.977.536-.969.553-.961.57-.953L.7,15.526l.6-.936.619-.927.635-.918.651-.908.667-.9.682-.888.7-.878L5.964,8.3l.728-.857L7.434,6.6l.757-.835.772-.824.786-.813.8-.8.814-.789.828-.777L13.032,1l.854-.752.867-.74.88-.727.893-.714.9-.7.917-.687L19.277-4l.94-.66.952-.646.963-.632.974-.617.985-.6a104.779,104.779,0,0,0-13.979,80.6h5.715l32.82-51.6Z" transform="translate(14.854 20.865)"/>
    <g transform="matrix(1, 0, 0, 1, -9, -6)" filter="url(#Path_4)">
      <path id="Path_4-2" data-name="Path 4" d="M19.076,77.6A99.223,99.223,0,0,1,47.177-8.88h0l-1.172.325-1.167.342-1.161.358-1.155.375-1.148.391-1.142.408L39.1-6.259l-1.128.44-1.12.456-1.112.472-1.1.488-1.1.5-1.088.519-1.079.534L30.3-2.3l-1.061.565-1.051.58-1.041.595-1.031.61L25.1.676l-1.01.639-1,.653-.989.667-.977.681-.966.7L19.2,4.72l-.942.722-.93.736-.918.749-.905.762-.892.775-.879.787-.866.8-.853.812-.839.824-.825.836-.811.848-.8.859-.783.87-.768.881-.753.892-.738.9-.723.913-.708.923-.692.933-.677.943-.661.953-.645.962-.629.971-.612.98-.6.989-.58,1-.563,1.005-.546,1.013-.529,1.021-.512,1.028-.495,1.035-.478,1.042-.46,1.049-.443,1.055-.425,1.062-.407,1.067-.389,1.073-.371,1.079L-6.8,40.955l-.335,1.089-.317,1.093-.3,1.1-.281,1.1-.262,1.106-.244,1.109-.225,1.113-.207,1.116L-9.152,50.9l-.169,1.121-.151,1.123L-9.6,54.268-9.717,55.4l-.094,1.129-.075,1.13-.057,1.131-.038,1.131L-10,61.048V62.18l.019,1.132.038,1.131.057,1.131.075,1.13.094,1.129L-9.6,68.96l.132,1.125.151,1.123.169,1.121.188,1.119.207,1.116.225,1.113.244,1.109.262,1.106.281,1.1.3,1.1.317,1.093.335,1.089.353,1.084.371,1.079.389,1.073.407,1.067.425,1.062.443,1.055.46,1.049.478,1.042.495,1.035.512,1.028.529,1.021.546,1.013.563,1.005.58,1,.6.989.612.98.629.971.645.962.661.953.677.943.692.933.708.923.723.913.738.9.753.892.768.881.783.87.8.859.811.848.825.836.839.824.853.812.866.8.879.787.892.775.905.762.918.749.93.736.942.722.954.709.966.7.977.681.989.667,1,.653,1.01.639,1.021.624,1.031.61,1.041.595,1.051.58,1.061.565,1.07.55,1.079.534,1.088.519,1.1.5,1.1.488,1.112.472,1.12.456,1.128.44,1.135.424,1.142.408,1.148.391,1.155.375,1.161.358,1.167.342,1.172.325a99.221,99.221,0,0,1-7.551-8.381h0l-1.079-.446-1.071-.462-1.063-.478-1.054-.493-1.045-.509-1.036-.524-1.027-.539-1.018-.554-1.008-.569-1-.584-.987-.6-.977-.613-.966-.628-.955-.642-.944-.656-.932-.669-.92-.683-.908-.7-.9-.71-.884-.723-.871-.736-.858-.749-.845-.761-.831-.774-.818-.786-.8-.8-.79-.809-.776-.821-.761-.832-.747-.843-.732-.854-.717-.865-.7-.875-.687-.886-.671-.9-.655-.905-.639-.915-.623-.924-.607-.933-.591-.942-.574-.951L4,93.136l-.541-.967-.524-.975-.507-.983-.49-.99-.473-1-.455-1L.573,86.21l-.42-1.017-.4-1.023-.384-1.028L-1,82.108l-.348-1.039-.33-1.044-.312-1.049-.293-1.053-.275-1.058L-2.815,75.8l-.238-1.065-.219-1.069-.2-1.072-.182-1.075-.163-1.077-.145-1.079-.126-1.081L-4.2,67.2l-.088-1.085-.069-1.086-.05-1.087-.031-1.087-.012-1.087.007-1.087.026-1.087.045-1.087.064-1.086.082-1.085.1-1.084L-4,54.172l.139-1.08.158-1.078.177-1.075.2-1.073.214-1.07.233-1.066.251-1.063.27-1.059.288-1.055.307-1.05.325-1.046.343-1.041.361-1.036.379-1.03.4-1.024.415-1.019L.883,36.3l.45-1.006.468-1,.485-.992.5-.985.519-.977.536-.969.553-.961.57-.953.586-.945.6-.936.619-.927.635-.918.651-.908.667-.9.682-.888.7-.878.713-.868.728-.857.743-.846.757-.835.772-.824.786-.813.8-.8.814-.789.828-.777.841-.765.854-.752.867-.74.88-.727.893-.714.9-.7L23.2,8.66l.929-.673.94-.66.952-.646.963-.632.974-.617.985-.6a104.779,104.779,0,0,0-13.979,80.6H20.68l32.82-51.6L53.808,23Z" transform="translate(19 14.88)" fill="url(#linear-gradient-2)"/>
    </g>
  </g>
</svg>
