<svg xmlns="http://www.w3.org/2000/svg" width="28" height="23.291" viewBox="0 0 28 23.291">
  <path id="twitter" d="M27.555,37.2a11.088,11.088,0,0,1-1.931.651,6.02,6.02,0,0,0,1.589-2.53h0a.316.316,0,0,0-.462-.368h0A11.14,11.14,0,0,1,23.8,36.173a.752.752,0,0,1-.184.023A.782.782,0,0,1,23.1,36,6.036,6.036,0,0,0,19.1,34.491a6.454,6.454,0,0,0-1.912.3A5.848,5.848,0,0,0,13.251,39a6.44,6.44,0,0,0-.143,2.223.216.216,0,0,1-.054.169.224.224,0,0,1-.167.076h-.021A15.829,15.829,0,0,1,1.986,35.654h0a.316.316,0,0,0-.517.04h0a6.043,6.043,0,0,0,.982,7.338A5.409,5.409,0,0,1,1.074,42.5h0a.316.316,0,0,0-.469.272h0A6.044,6.044,0,0,0,4.131,48.34l-.129,0a5.432,5.432,0,0,1-1.017-.1h0a.316.316,0,0,0-.36.406h0A6.05,6.05,0,0,0,7.4,52.766,11.139,11.139,0,0,1,1.165,54.66h-.7a.462.462,0,0,0-.452.349.478.478,0,0,0,.229.528,16.568,16.568,0,0,0,8.325,2.245,16.8,16.8,0,0,0,7.115-1.509,15.711,15.711,0,0,0,5.206-3.9,17.1,17.1,0,0,0,3.188-5.339,16.864,16.864,0,0,0,1.083-5.843V41.1a1.027,1.027,0,0,1,.384-.8,11.931,11.931,0,0,0,2.4-2.634h0a.316.316,0,0,0-.39-.464Z" transform="translate(0 -34.491)" fill="#76a9ea"/>
</svg>
